<svg width="13" height="13" viewBox="0 0 13 13" fill="none" xmlns="http://www.w3.org/2000/svg">
<path d="M5.44531 1.58203L6.04688 0.980469C6.32031 0.734375 6.73047 0.734375 6.97656 0.980469L12.3086 6.28516C12.5547 6.55859 12.5547 6.96875 12.3086 7.21484L6.97656 12.5469C6.73047 12.793 6.32031 12.793 6.04688 12.5469L5.44531 11.9453C5.19922 11.6719 5.19922 11.2617 5.44531 10.9883L8.75391 7.84375H0.90625C0.523438 7.84375 0.25 7.57031 0.25 7.1875V6.3125C0.25 5.95703 0.523438 5.65625 0.90625 5.65625H8.75391L5.44531 2.53906C5.19922 2.26562 5.17188 1.85547 5.44531 1.58203Z" fill="#0466C8"/>
</svg>
